<svg width="155" height="24" viewBox="0 0 154 24" fill="none" xmlns="http://www.w3.org/2000/svg">
<path d="M6.35547 0.285156L7.01172 2.11328C6.30078 2.37109 5.81641 2.82812 5.55859 3.48438C5.30078 4.13281 5.17188 4.88281 5.17188 5.73438V8.125C5.17188 8.91406 4.99609 9.62891 4.64453 10.2695C4.30078 10.9102 3.75391 11.4219 3.00391 11.8047C2.25391 12.1797 1.27344 12.3672 0.0625 12.3672V10.5859C0.804688 10.5859 1.33594 10.3633 1.65625 9.91797C1.98438 9.47266 2.14844 8.875 2.14844 8.125V5.73438C2.14844 4.91406 2.27344 4.14844 2.52344 3.4375C2.78125 2.71875 3.21484 2.08984 3.82422 1.55078C4.44141 1.00391 5.28516 0.582031 6.35547 0.285156ZM7.01172 21.4023L6.35547 23.2422C5.28516 22.9375 4.44141 22.5117 3.82422 21.9648C3.21484 21.4258 2.78125 20.7969 2.52344 20.0781C2.27344 19.3672 2.14844 18.6016 2.14844 17.7812V15.3906C2.14844 14.8906 2.07422 14.457 1.92578 14.0898C1.78516 13.7227 1.5625 13.4414 1.25781 13.2461C0.953125 13.043 0.554688 12.9414 0.0625 12.9414V11.1484C1.27344 11.1484 2.25391 11.3398 3.00391 11.7227C3.75391 12.0977 4.30078 12.6055 4.64453 13.2461C4.99609 13.8867 5.17188 14.6016 5.17188 15.3906V17.7812C5.17188 18.3516 5.22656 18.8789 5.33594 19.3633C5.45312 19.8477 5.64062 20.2656 5.89844 20.6172C6.16406 20.9688 6.53516 21.2305 7.01172 21.4023ZM14.1719 12.7891V12.543C14.1719 11.6133 14.3047 10.7578 14.5703 9.97656C14.8359 9.1875 15.2227 8.50391 15.7305 7.92578C16.2383 7.34766 16.8633 6.89844 17.6055 6.57812C18.3477 6.25 19.1992 6.08594 20.1602 6.08594C21.1211 6.08594 21.9766 6.25 22.7266 6.57812C23.4766 6.89844 24.1055 7.34766 24.6133 7.92578C25.1289 8.50391 25.5195 9.1875 25.7852 9.97656C26.0508 10.7578 26.1836 11.6133 26.1836 12.543V12.7891C26.1836 13.7109 26.0508 14.5664 25.7852 15.3555C25.5195 16.1367 25.1289 16.8203 24.6133 17.4062C24.1055 17.9844 23.4805 18.4336 22.7383 18.7539C21.9961 19.0742 21.1445 19.2344 20.1836 19.2344C19.2227 19.2344 18.3672 19.0742 17.6172 18.7539C16.875 18.4336 16.2461 17.9844 15.7305 17.4062C15.2227 16.8203 14.8359 16.1367 14.5703 15.3555C14.3047 14.5664 14.1719 13.7109 14.1719 12.7891ZM17.5469 12.543V12.7891C17.5469 13.3203 17.5938 13.8164 17.6875 14.2773C17.7812 14.7383 17.9297 15.1445 18.1328 15.4961C18.3438 15.8398 18.6172 16.1094 18.9531 16.3047C19.2891 16.5 19.6992 16.5977 20.1836 16.5977C20.6523 16.5977 21.0547 16.5 21.3906 16.3047C21.7266 16.1094 21.9961 15.8398 22.1992 15.4961C22.4023 15.1445 22.5508 14.7383 22.6445 14.2773C22.7461 13.8164 22.7969 13.3203 22.7969 12.7891V12.543C22.7969 12.0273 22.7461 11.543 22.6445 11.0898C22.5508 10.6289 22.3984 10.2227 22.1875 9.87109C21.9844 9.51172 21.7148 9.23047 21.3789 9.02734C21.043 8.82422 20.6367 8.72266 20.1602 8.72266C19.6836 8.72266 19.2773 8.82422 18.9414 9.02734C18.6133 9.23047 18.3438 9.51172 18.1328 9.87109C17.9297 10.2227 17.7812 10.6289 17.6875 11.0898C17.5938 11.543 17.5469 12.0273 17.5469 12.543ZM31.6328 9.08594V19H28.2578V6.32031H31.4336L31.6328 9.08594ZM35.4531 6.23828L35.3945 9.36719C35.2305 9.34375 35.0312 9.32422 34.7969 9.30859C34.5703 9.28516 34.3633 9.27344 34.1758 9.27344C33.6992 9.27344 33.2852 9.33594 32.9336 9.46094C32.5898 9.57812 32.3008 9.75391 32.0664 9.98828C31.8398 10.2227 31.668 10.5078 31.5508 10.8438C31.4414 11.1797 31.3789 11.5625 31.3633 11.9922L30.6836 11.7812C30.6836 10.9609 30.7656 10.207 30.9297 9.51953C31.0938 8.82422 31.332 8.21875 31.6445 7.70312C31.9648 7.1875 32.3555 6.78906 32.8164 6.50781C33.2773 6.22656 33.8047 6.08594 34.3984 6.08594C34.5859 6.08594 34.7773 6.10156 34.9727 6.13281C35.168 6.15625 35.3281 6.19141 35.4531 6.23828ZM44.8398 6.32031H47.8984V18.5781C47.8984 19.7344 47.6406 20.7148 47.125 21.5195C46.6172 22.332 45.9062 22.9453 44.9922 23.3594C44.0781 23.7812 43.0156 23.9922 41.8047 23.9922C41.2734 23.9922 40.7109 23.9219 40.1172 23.7812C39.5312 23.6406 38.9688 23.4219 38.4297 23.125C37.8984 22.8281 37.4531 22.4531 37.0938 22L38.582 20.0078C38.9727 20.4609 39.4258 20.8125 39.9414 21.0625C40.457 21.3203 41.0273 21.4492 41.6523 21.4492C42.2617 21.4492 42.7773 21.3359 43.1992 21.1094C43.6211 20.8906 43.9453 20.5664 44.1719 20.1367C44.3984 19.7148 44.5117 19.2031 44.5117 18.6016V9.25L44.8398 6.32031ZM36.3086 12.8125V12.5664C36.3086 11.5977 36.4258 10.7188 36.6602 9.92969C36.9023 9.13281 37.2422 8.44922 37.6797 7.87891C38.125 7.30859 38.6641 6.86719 39.2969 6.55469C39.9297 6.24219 40.6445 6.08594 41.4414 6.08594C42.2852 6.08594 42.9922 6.24219 43.5625 6.55469C44.1328 6.86719 44.6016 7.3125 44.9688 7.89062C45.3359 8.46094 45.6211 9.13672 45.8242 9.91797C46.0352 10.6914 46.1992 11.5391 46.3164 12.4609V13C46.1992 13.8828 46.0234 14.7031 45.7891 15.4609C45.5547 16.2188 45.2461 16.8828 44.8633 17.4531C44.4805 18.0156 44.0039 18.4531 43.4336 18.7656C42.8711 19.0781 42.1992 19.2344 41.418 19.2344C40.6367 19.2344 39.9297 19.0742 39.2969 18.7539C38.6719 18.4336 38.1367 17.9844 37.6914 17.4062C37.2461 16.8281 36.9023 16.1484 36.6602 15.3672C36.4258 14.5859 36.3086 13.7344 36.3086 12.8125ZM39.6836 12.5664V12.8125C39.6836 13.3359 39.7344 13.8242 39.8359 14.2773C39.9375 14.7305 40.0938 15.1328 40.3047 15.4844C40.5234 15.8281 40.793 16.0977 41.1133 16.293C41.4414 16.4805 41.8281 16.5742 42.2734 16.5742C42.8906 16.5742 43.3945 16.4453 43.7852 16.1875C44.1758 15.9219 44.4688 15.5586 44.6641 15.0977C44.8594 14.6367 44.9727 14.1055 45.0039 13.5039V11.9688C44.9883 11.4766 44.9219 11.0352 44.8047 10.6445C44.6875 10.2461 44.5234 9.90625 44.3125 9.625C44.1016 9.34375 43.8281 9.125 43.4922 8.96875C43.1562 8.8125 42.7578 8.73438 42.2969 8.73438C41.8516 8.73438 41.4648 8.83594 41.1367 9.03906C40.8164 9.23438 40.5469 9.50391 40.3281 9.84766C40.1172 10.1914 39.957 10.5977 39.8477 11.0664C39.7383 11.5273 39.6836 12.0273 39.6836 12.5664ZM57.3672 16.1406V10.4922C57.3672 10.0859 57.3008 9.73828 57.168 9.44922C57.0352 9.15234 56.8281 8.92188 56.5469 8.75781C56.2734 8.59375 55.918 8.51172 55.4805 8.51172C55.1055 8.51172 54.7812 8.57812 54.5078 8.71094C54.2344 8.83594 54.0234 9.01953 53.875 9.26172C53.7266 9.49609 53.6523 9.77344 53.6523 10.0938H50.2773C50.2773 9.55469 50.4023 9.04297 50.6523 8.55859C50.9023 8.07422 51.2656 7.64844 51.7422 7.28125C52.2188 6.90625 52.7852 6.61328 53.4414 6.40234C54.1055 6.19141 54.8477 6.08594 55.668 6.08594C56.6523 6.08594 57.5273 6.25 58.293 6.57812C59.0586 6.90625 59.6602 7.39844 60.0977 8.05469C60.543 8.71094 60.7656 9.53125 60.7656 10.5156V15.9414C60.7656 16.6367 60.8086 17.207 60.8945 17.6523C60.9805 18.0898 61.1055 18.4727 61.2695 18.8008V19H57.8594C57.6953 18.6562 57.5703 18.2266 57.4844 17.7109C57.4062 17.1875 57.3672 16.6641 57.3672 16.1406ZM57.8125 11.2773L57.8359 13.1875H55.9492C55.5039 13.1875 55.1172 13.2383 54.7891 13.3398C54.4609 13.4414 54.1914 13.5859 53.9805 13.7734C53.7695 13.9531 53.6133 14.1641 53.5117 14.4062C53.418 14.6484 53.3711 14.9141 53.3711 15.2031C53.3711 15.4922 53.4375 15.7539 53.5703 15.9883C53.7031 16.2148 53.8945 16.3945 54.1445 16.5273C54.3945 16.6523 54.6875 16.7148 55.0234 16.7148C55.5312 16.7148 55.9727 16.6133 56.3477 16.4102C56.7227 16.207 57.0117 15.957 57.2148 15.6602C57.4258 15.3633 57.5352 15.082 57.543 14.8164L58.4336 16.2461C58.3086 16.5664 58.1367 16.8984 57.918 17.2422C57.707 17.5859 57.4375 17.9102 57.1094 18.2148C56.7812 18.5117 56.3867 18.7578 55.9258 18.9531C55.4648 19.1406 54.918 19.2344 54.2852 19.2344C53.4805 19.2344 52.75 19.0742 52.0938 18.7539C51.4453 18.4258 50.9297 17.9766 50.5469 17.4062C50.1719 16.8281 49.9844 16.1719 49.9844 15.4375C49.9844 14.7734 50.1094 14.1836 50.3594 13.668C50.6094 13.1523 50.9766 12.7188 51.4609 12.3672C51.9531 12.0078 52.5664 11.7383 53.3008 11.5586C54.0352 11.3711 54.8867 11.2773 55.8555 11.2773H57.8125ZM66.6719 9.02734V19H63.2969V6.32031H66.4609L66.6719 9.02734ZM66.1797 12.2148H65.2656C65.2656 11.2773 65.3867 10.4336 65.6289 9.68359C65.8711 8.92578 66.2109 8.28125 66.6484 7.75C67.0859 7.21094 67.6055 6.80078 68.207 6.51953C68.8164 6.23047 69.4961 6.08594 70.2461 6.08594C70.8398 6.08594 71.3828 6.17187 71.875 6.34375C72.3672 6.51563 72.7891 6.78906 73.1406 7.16406C73.5 7.53906 73.7734 8.03516 73.9609 8.65234C74.1562 9.26953 74.2539 10.0234 74.2539 10.9141V19H70.8555V10.9023C70.8555 10.3398 70.7773 9.90234 70.6211 9.58984C70.4648 9.27734 70.2344 9.05859 69.9297 8.93359C69.6328 8.80078 69.2656 8.73438 68.8281 8.73438C68.375 8.73438 67.9805 8.82422 67.6445 9.00391C67.3164 9.18359 67.043 9.43359 66.8242 9.75391C66.6133 10.0664 66.4531 10.4336 66.3438 10.8555C66.2344 11.2773 66.1797 11.7305 66.1797 12.2148ZM80.3828 6.32031V19H76.9961V6.32031H80.3828ZM76.7852 3.01562C76.7852 2.52344 76.957 2.11719 77.3008 1.79688C77.6445 1.47656 78.1055 1.31641 78.6836 1.31641C79.2539 1.31641 79.7109 1.47656 80.0547 1.79688C80.4062 2.11719 80.582 2.52344 80.582 3.01562C80.582 3.50781 80.4062 3.91406 80.0547 4.23438C79.7109 4.55469 79.2539 4.71484 78.6836 4.71484C78.1055 4.71484 77.6445 4.55469 77.3008 4.23438C76.957 3.91406 76.7852 3.50781 76.7852 3.01562ZM93.2617 16.3633V19H83.6289V16.3633H93.2617ZM93.0742 8.26562L84.9883 19H82.7266V16.9961L90.7773 6.32031H93.0742V8.26562ZM91.8789 6.32031V8.96875H82.9141V6.32031H91.8789ZM102.227 16.1406V10.4922C102.227 10.0859 102.16 9.73828 102.027 9.44922C101.895 9.15234 101.688 8.92188 101.406 8.75781C101.133 8.59375 100.777 8.51172 100.34 8.51172C99.9648 8.51172 99.6406 8.57812 99.3672 8.71094C99.0938 8.83594 98.8828 9.01953 98.7344 9.26172C98.5859 9.49609 98.5117 9.77344 98.5117 10.0938H95.1367C95.1367 9.55469 95.2617 9.04297 95.5117 8.55859C95.7617 8.07422 96.125 7.64844 96.6016 7.28125C97.0781 6.90625 97.6445 6.61328 98.3008 6.40234C98.9648 6.19141 99.707 6.08594 100.527 6.08594C101.512 6.08594 102.387 6.25 103.152 6.57812C103.918 6.90625 104.52 7.39844 104.957 8.05469C105.402 8.71094 105.625 9.53125 105.625 10.5156V15.9414C105.625 16.6367 105.668 17.207 105.754 17.6523C105.84 18.0898 105.965 18.4727 106.129 18.8008V19H102.719C102.555 18.6562 102.43 18.2266 102.344 17.7109C102.266 17.1875 102.227 16.6641 102.227 16.1406ZM102.672 11.2773L102.695 13.1875H100.809C100.363 13.1875 99.9766 13.2383 99.6484 13.3398C99.3203 13.4414 99.0508 13.5859 98.8398 13.7734C98.6289 13.9531 98.4727 14.1641 98.3711 14.4062C98.2773 14.6484 98.2305 14.9141 98.2305 15.2031C98.2305 15.4922 98.2969 15.7539 98.4297 15.9883C98.5625 16.2148 98.7539 16.3945 99.0039 16.5273C99.2539 16.6523 99.5469 16.7148 99.8828 16.7148C100.391 16.7148 100.832 16.6133 101.207 16.4102C101.582 16.207 101.871 15.957 102.074 15.6602C102.285 15.3633 102.395 15.082 102.402 14.8164L103.293 16.2461C103.168 16.5664 102.996 16.8984 102.777 17.2422C102.566 17.5859 102.297 17.9102 101.969 18.2148C101.641 18.5117 101.246 18.7578 100.785 18.9531C100.324 19.1406 99.7773 19.2344 99.1445 19.2344C98.3398 19.2344 97.6094 19.0742 96.9531 18.7539C96.3047 18.4258 95.7891 17.9766 95.4062 17.4062C95.0312 16.8281 94.8438 16.1719 94.8438 15.4375C94.8438 14.7734 94.9688 14.1836 95.2188 13.668C95.4688 13.1523 95.8359 12.7188 96.3203 12.3672C96.8125 12.0078 97.4258 11.7383 98.1602 11.5586C98.8945 11.3711 99.7461 11.2773 100.715 11.2773H102.672ZM108.227 1H111.602V16.0938L111.262 19H108.227V1ZM119.629 12.5312V12.7773C119.629 13.7227 119.527 14.5898 119.324 15.3789C119.129 16.168 118.824 16.8516 118.41 17.4297C117.996 18 117.48 18.4453 116.863 18.7656C116.254 19.0781 115.535 19.2344 114.707 19.2344C113.934 19.2344 113.262 19.0781 112.691 18.7656C112.129 18.4531 111.656 18.0117 111.273 17.4414C110.891 16.8711 110.582 16.2031 110.348 15.4375C110.113 14.6719 109.938 13.8359 109.82 12.9297V12.3906C109.938 11.4844 110.113 10.6484 110.348 9.88281C110.582 9.11719 110.891 8.44922 111.273 7.87891C111.656 7.30859 112.129 6.86719 112.691 6.55469C113.254 6.24219 113.918 6.08594 114.684 6.08594C115.52 6.08594 116.246 6.24609 116.863 6.56641C117.488 6.87891 118.004 7.32422 118.41 7.90234C118.824 8.47266 119.129 9.15234 119.324 9.94141C119.527 10.7227 119.629 11.5859 119.629 12.5312ZM116.254 12.7773V12.5312C116.254 12.0156 116.215 11.5312 116.137 11.0781C116.066 10.6172 115.941 10.2148 115.762 9.87109C115.582 9.51953 115.336 9.24219 115.023 9.03906C114.719 8.83594 114.324 8.73438 113.84 8.73438C113.379 8.73438 112.988 8.8125 112.668 8.96875C112.348 9.125 112.082 9.34375 111.871 9.625C111.668 9.90625 111.516 10.2422 111.414 10.6328C111.312 11.0156 111.25 11.4375 111.227 11.8984V13.4336C111.25 14.0508 111.352 14.5977 111.531 15.0742C111.719 15.543 112 15.9141 112.375 16.1875C112.758 16.4531 113.254 16.5859 113.863 16.5859C114.34 16.5859 114.734 16.4922 115.047 16.3047C115.359 16.1172 115.602 15.8516 115.773 15.5078C115.953 15.1641 116.078 14.7617 116.148 14.3008C116.219 13.832 116.254 13.3242 116.254 12.7773ZM125.289 1V19H121.902V1H125.289ZM133.914 19.2344C132.93 19.2344 132.047 19.0781 131.266 18.7656C130.484 18.4453 129.82 18.0039 129.273 17.4414C128.734 16.8789 128.32 16.2266 128.031 15.4844C127.742 14.7344 127.598 13.9375 127.598 13.0938V12.625C127.598 11.6641 127.734 10.7852 128.008 9.98828C128.281 9.19141 128.672 8.5 129.18 7.91406C129.695 7.32812 130.32 6.87891 131.055 6.56641C131.789 6.24609 132.617 6.08594 133.539 6.08594C134.438 6.08594 135.234 6.23438 135.93 6.53125C136.625 6.82812 137.207 7.25 137.676 7.79688C138.152 8.34375 138.512 9 138.754 9.76562C138.996 10.5234 139.117 11.3672 139.117 12.2969V13.7031H129.039V11.4531H135.801V11.1953C135.801 10.7266 135.715 10.3086 135.543 9.94141C135.379 9.56641 135.129 9.26953 134.793 9.05078C134.457 8.83203 134.027 8.72266 133.504 8.72266C133.059 8.72266 132.676 8.82031 132.355 9.01562C132.035 9.21094 131.773 9.48438 131.57 9.83594C131.375 10.1875 131.227 10.6016 131.125 11.0781C131.031 11.5469 130.984 12.0625 130.984 12.625V13.0938C130.984 13.6016 131.055 14.0703 131.195 14.5C131.344 14.9297 131.551 15.3008 131.816 15.6133C132.09 15.9258 132.418 16.168 132.801 16.3398C133.191 16.5117 133.633 16.5977 134.125 16.5977C134.734 16.5977 135.301 16.4805 135.824 16.2461C136.355 16.0039 136.812 15.6406 137.195 15.1562L138.836 16.9375C138.57 17.3203 138.207 17.6875 137.746 18.0391C137.293 18.3906 136.746 18.6797 136.105 18.9062C135.465 19.125 134.734 19.2344 133.914 19.2344ZM146.102 2.11328L146.758 0.285156C147.836 0.582031 148.68 1.00391 149.289 1.55078C149.898 2.08984 150.328 2.71875 150.578 3.4375C150.836 4.14844 150.965 4.91406 150.965 5.73438V8.125C150.965 8.625 151.035 9.05859 151.176 9.42578C151.316 9.79297 151.539 10.0781 151.844 10.2812C152.156 10.4844 152.559 10.5859 153.051 10.5859V12.3203C151.84 12.3203 150.859 12.1367 150.109 11.7695C149.359 11.4023 148.809 10.9023 148.457 10.2695C148.105 9.62891 147.93 8.91406 147.93 8.125V5.73438C147.93 5.16406 147.875 4.63672 147.766 4.15234C147.664 3.66797 147.48 3.25 147.215 2.89844C146.949 2.54688 146.578 2.28516 146.102 2.11328ZM146.758 23.2422L146.102 21.4023C146.578 21.2305 146.949 20.9688 147.215 20.6172C147.48 20.2656 147.664 19.8477 147.766 19.3633C147.875 18.8789 147.93 18.3516 147.93 17.7812V15.3906C147.93 14.6016 148.105 13.8906 148.457 13.2578C148.809 12.625 149.359 12.125 150.109 11.7578C150.859 11.3828 151.84 11.1953 153.051 11.1953V12.9414C152.316 12.9414 151.785 13.1641 151.457 13.6094C151.129 14.0547 150.965 14.6484 150.965 15.3906V17.7812C150.965 18.6016 150.836 19.3672 150.578 20.0781C150.328 20.7969 149.898 21.4258 149.289 21.9648C148.68 22.5117 147.836 22.9375 146.758 23.2422Z" fill="#303036"/>
</svg>
